<svg width="23" height="26" viewBox="0 0 23 26" fill="none" xmlns="http://www.w3.org/2000/svg">
<path d="M6.74139 11.7567C6.99102 11.7064 7.21062 11.5581 7.35186 11.3445C7.4931 11.1309 7.54442 10.8695 7.49452 10.6178C7.44463 10.366 7.29761 10.1446 7.08581 10.0021C6.87401 9.85969 6.61477 9.80794 6.36514 9.85826C5.20951 10.0906 4.33672 10.9062 3.87216 11.9993C3.41145 13.0809 3.34362 14.4334 3.70323 15.8814C3.73132 16.0073 3.78406 16.1262 3.85837 16.2312C3.93267 16.3362 4.02704 16.4252 4.13592 16.4929C4.24481 16.5606 4.36601 16.6056 4.49242 16.6254C4.61882 16.6452 4.74787 16.6393 4.87198 16.6081C4.99609 16.5769 5.11276 16.5209 5.21513 16.4436C5.3175 16.3662 5.40351 16.269 5.46811 16.1577C5.5327 16.0464 5.57457 15.9231 5.59126 15.7952C5.60794 15.6673 5.59911 15.5374 5.56529 15.4129C5.28374 14.2798 5.37588 13.3738 5.63567 12.7621C5.89162 12.1607 6.29859 11.8471 6.74139 11.7567ZM2.99681 1.66947C2.94212 2.58576 3.07513 3.50359 3.38756 4.36577C3.69999 5.22795 4.18514 6.016 4.81279 6.68083C3.59364 7.03334 2.50213 7.73508 1.67071 8.70091C0.839282 9.66674 0.303672 10.8552 0.128864 12.1219C-0.292369 15.1615 0.326039 18.2552 1.88214 20.8928L2.33005 21.6542L2.38508 21.7355L4.19722 24.1954C4.58104 24.7168 5.07294 25.1475 5.63865 25.4576C6.20436 25.7677 6.8303 25.9497 7.47287 25.991C8.11545 26.0322 8.75923 25.9318 9.35938 25.6966C9.95954 25.4614 10.5016 25.0971 10.948 24.629C11.0001 24.5743 11.0627 24.5308 11.132 24.501C11.2013 24.4713 11.2758 24.456 11.3511 24.456C11.4264 24.456 11.5009 24.4713 11.5702 24.501C11.6394 24.5308 11.702 24.5743 11.7542 24.629C12.2005 25.0971 12.7426 25.4614 13.3428 25.6966C13.9429 25.9318 14.5867 26.0322 15.2293 25.991C15.8719 25.9497 16.4978 25.7677 17.0635 25.4576C17.6292 25.1475 18.1211 24.7168 18.5049 24.1954L20.3171 21.7343L20.3708 21.6529L20.82 20.8915C22.3772 18.2547 22.9969 15.1616 22.5771 12.1219C22.4532 11.2263 22.1483 10.3658 21.6814 9.59381C21.2144 8.82179 20.5952 8.15466 19.8622 7.63371C19.1292 7.11276 18.298 6.74909 17.42 6.56521C16.542 6.38132 15.6359 6.38114 14.7578 6.56468L12.325 7.07317H12.3211C12.3595 6.06651 12.5157 4.98241 12.8215 4.05577C13.1927 2.93554 13.7071 2.26185 14.2805 2.0218C14.5155 1.92288 14.7019 1.73385 14.7988 1.4963C14.8956 1.25874 14.8949 0.992124 14.7968 0.755091C14.6987 0.518058 14.5113 0.33003 14.2757 0.23237C14.0402 0.13471 13.7758 0.135418 13.5408 0.234338C12.1944 0.800907 11.4291 2.14441 11.0004 3.44274L10.9416 3.626C10.6267 3.01166 10.2197 2.45008 9.73475 1.96115C9.07108 1.291 8.2738 0.770704 7.3957 0.434738C6.5176 0.0987712 5.57873 -0.0452014 4.6413 0.0123573C4.21349 0.0371901 3.8096 0.219505 3.50624 0.524718C3.20288 0.829932 3.02115 1.23681 2.99553 1.66818M4.90621 1.93533C5.5484 1.91664 6.1876 2.03066 6.78447 2.27036C7.38134 2.51006 7.92327 2.87039 8.37692 3.32917C8.83185 3.78665 9.18915 4.33317 9.42685 4.93509C9.66454 5.53701 9.7776 6.18162 9.75906 6.82925C9.52697 6.83439 9.29479 6.82361 9.06415 6.79698L8.27454 6.63179C7.52457 6.40474 6.84214 5.99368 6.28835 5.43541C5.83342 4.97793 5.47612 4.43141 5.23842 3.82949C5.00073 3.22756 4.88767 2.58296 4.90621 1.93533ZM7.55531 8.45926L7.81382 8.51346C8.12097 8.60122 8.43238 8.66661 8.74805 8.70963L9.98942 8.96775C10.8885 9.15559 11.8162 9.15559 12.7153 8.96775L15.1494 8.45926C15.7703 8.32949 16.411 8.32963 17.0318 8.45968C17.6526 8.58973 18.2404 8.84692 18.7586 9.21532C19.2769 9.58371 19.7147 10.0555 20.0448 10.6014C20.3749 11.1473 20.5905 11.7558 20.678 12.3891C21.0373 14.9931 20.5061 17.6429 19.1717 19.9016L18.7481 20.6205L16.9654 23.0416C16.7478 23.3372 16.469 23.5813 16.1483 23.7571C15.8276 23.9328 15.4728 24.036 15.1086 24.0593C14.7443 24.0827 14.3794 24.0256 14.0392 23.8922C13.699 23.7588 13.3918 23.5522 13.1389 23.2868C12.9077 23.0442 12.6303 22.8511 12.3233 22.7193C12.0163 22.5874 11.686 22.5194 11.3524 22.5194C11.0187 22.5194 10.6884 22.5874 10.3814 22.7193C10.0744 22.8511 9.79701 23.0442 9.56582 23.2868C9.31291 23.5522 9.00568 23.7588 8.66551 23.8922C8.32534 24.0256 7.96043 24.0827 7.59617 24.0593C7.23192 24.036 6.87709 23.9328 6.55641 23.7571C6.23572 23.5813 5.95689 23.3372 5.73933 23.0416L3.95663 20.6205L3.53303 19.9016C2.19911 17.6428 1.66827 14.993 2.02803 12.3891C2.11557 11.7559 2.33104 11.1476 2.6611 10.6018C2.99117 10.0559 3.42881 9.58425 3.94693 9.21587C4.46505 8.84749 5.05263 8.59027 5.6733 8.46013C6.29397 8.32998 6.93453 8.32969 7.55531 8.45926Z" fill="#11131A"/>
</svg>
