<svg width="23" height="27" viewBox="0 0 23 27" fill="none" xmlns="http://www.w3.org/2000/svg">
<path d="M6.82894 12.2089C7.08182 12.1566 7.30426 12.0027 7.44734 11.7809C7.59041 11.5591 7.6424 11.2876 7.59186 11.0261C7.54131 10.7647 7.39239 10.5347 7.17783 10.3868C6.96328 10.2389 6.70068 10.1852 6.4478 10.2374C5.27717 10.4787 4.39304 11.3257 3.92245 12.4609C3.45575 13.584 3.38705 14.9885 3.75133 16.4923C3.77978 16.6229 3.8332 16.7464 3.90847 16.8555C3.98375 16.9645 4.07934 17.0569 4.18964 17.1272C4.29994 17.1975 4.42272 17.2443 4.55076 17.2649C4.6788 17.2854 4.80953 17.2793 4.93525 17.2469C5.06097 17.2144 5.17916 17.1564 5.28286 17.076C5.38656 16.9957 5.47369 16.8948 5.53912 16.7791C5.60455 16.6635 5.64696 16.5355 5.66387 16.4027C5.68077 16.2699 5.67183 16.1349 5.63756 16.0058C5.35236 14.829 5.4457 13.8882 5.70886 13.2529C5.96814 12.6284 6.38039 12.3027 6.82894 12.2089ZM3.03573 1.73368C2.98033 2.68521 3.11507 3.63834 3.43156 4.53368C3.74805 5.42902 4.2395 6.24739 4.87529 6.93778C3.64031 7.30385 2.53463 8.03258 1.6924 9.03556C0.850182 10.0385 0.307616 11.2727 0.130538 12.5882C-0.296166 15.7447 0.330273 18.9573 1.90658 21.6964L2.36031 22.4871L2.41606 22.5715L4.25173 25.126C4.64054 25.6674 5.13882 26.1147 5.71188 26.4367C6.28494 26.7587 6.919 26.9478 7.56992 26.9906C8.22085 27.0335 8.87299 26.9292 9.48093 26.6849C10.0889 26.4406 10.638 26.0623 11.0901 25.5763C11.143 25.5195 11.2064 25.4743 11.2766 25.4434C11.3468 25.4125 11.4222 25.3966 11.4985 25.3966C11.5748 25.3966 11.6502 25.4125 11.7204 25.4434C11.7906 25.4743 11.854 25.5195 11.9069 25.5763C12.359 26.0623 12.9081 26.4406 13.5161 26.6849C14.124 26.9292 14.7761 27.0335 15.4271 26.9906C16.078 26.9478 16.7121 26.7587 17.2851 26.4367C17.8582 26.1147 18.3565 25.6674 18.7453 25.126L20.5809 22.5702L20.6354 22.4858L21.0904 21.695C22.6678 18.9568 23.2956 15.7447 22.8703 12.5882C22.7448 11.6581 22.436 10.7645 21.9629 9.96281C21.4899 9.16109 20.8627 8.4683 20.1201 7.92732C19.3776 7.38633 18.5356 7.00867 17.6462 6.81771C16.7568 6.62676 15.8389 6.62657 14.9495 6.81716L12.485 7.34521H12.4812C12.52 6.29984 12.6782 5.17405 12.988 4.21176C13.364 3.04845 13.8851 2.34885 14.4659 2.09957C14.704 1.99684 14.8929 1.80054 14.991 1.55385C15.0891 1.30716 15.0884 1.03028 14.989 0.784133C14.8896 0.537984 14.6998 0.342724 14.4611 0.241307C14.2225 0.139891 13.9547 0.140626 13.7166 0.243351C12.3528 0.831711 11.5776 2.22689 11.1433 3.57515L11.0837 3.76547C10.7648 3.1275 10.3524 2.54432 9.86117 2.03657C9.18889 1.34065 8.38125 0.800347 7.49175 0.451458C6.60224 0.10257 5.65119 -0.0469399 4.70158 0.0128325C4.26821 0.0386204 3.85908 0.227947 3.55178 0.5449C3.24448 0.861852 3.06039 1.28438 3.03443 1.73234M4.96993 2.00977C5.62046 1.99036 6.26796 2.10876 6.87258 2.35768C7.47721 2.6066 8.02617 2.98079 8.48571 3.45721C8.94655 3.93229 9.30849 4.49983 9.54927 5.1249C9.79005 5.74998 9.90458 6.41937 9.8858 7.09191C9.65069 7.09726 9.41551 7.08606 9.18187 7.0584L8.382 6.88685C7.62229 6.65108 6.931 6.22421 6.37002 5.64446C5.90918 5.16939 5.54724 4.60185 5.30646 3.97678C5.06568 3.3517 4.95115 2.68231 4.96993 2.00977ZM7.65343 8.78462L7.9153 8.84091C8.22643 8.93204 8.54189 8.99994 8.86166 9.04462L10.1192 9.31267C11.0299 9.50772 11.9697 9.50772 12.8804 9.31267L15.3462 8.78462C15.9751 8.64986 16.6241 8.65001 17.253 8.78506C17.8819 8.92011 18.4772 9.18719 19.0022 9.56975C19.5272 9.95232 19.9707 10.4422 20.3051 11.0091C20.6396 11.5761 20.8579 12.2079 20.9465 12.8656C21.3106 15.5698 20.7724 18.3215 19.4207 20.6671L18.9916 21.4136L17.1857 23.9278C16.9653 24.2347 16.6829 24.4883 16.358 24.6708C16.0332 24.8533 15.6737 24.9604 15.3048 24.9847C14.9358 25.0089 14.5661 24.9497 14.2215 24.8112C13.877 24.6726 13.5657 24.4581 13.3095 24.1825C13.0753 23.9305 12.7943 23.73 12.4833 23.5931C12.1724 23.4561 11.8378 23.3855 11.4998 23.3855C11.1618 23.3855 10.8272 23.4561 10.5163 23.5931C10.2053 23.73 9.92425 23.9305 9.69005 24.1825C9.43386 24.4581 9.12263 24.6726 8.77805 24.8112C8.43346 24.9497 8.06381 25.0089 7.69483 24.9847C7.32584 24.9604 6.96641 24.8533 6.64156 24.6708C6.31671 24.4883 6.03425 24.2347 5.81387 23.9278L4.00801 21.4136L3.57891 20.6671C2.22767 18.3214 1.68994 15.5696 2.05437 12.8656C2.14304 12.2081 2.36131 11.5763 2.69566 11.0095C3.03002 10.4427 3.47334 9.95287 3.99819 9.57033C4.52304 9.18778 5.11825 8.92066 5.74698 8.78552C6.37571 8.65037 7.02458 8.65006 7.65343 8.78462Z" fill="#888884"/>
</svg>
